<svg width="30" height="30" viewBox="0 0 30 30" fill="none" xmlns="http://www.w3.org/2000/svg">
<rect width="30" height="30" fill="white"/>
<path d="M3.46237 15.8412C11.1858 10.1874 18.9093 10.1874 26.6328 15.8412C18.9093 21.4999 11.1858 21.4999 3.46237 15.8412Z" stroke="#1D1D1B" stroke-linecap="round" stroke-linejoin="round"/>
<path d="M15.0476 20.1486C17.3182 20.1486 19.1588 18.3164 19.1588 16.0563C19.1588 13.7961 17.3182 11.9639 15.0476 11.9639C12.7771 11.9639 10.9364 13.7961 10.9364 16.0563C10.9364 18.3164 12.7771 20.1486 15.0476 20.1486Z" stroke="#1D1D1B" stroke-linecap="round" stroke-linejoin="round"/>
<path d="M15.0476 18.2671C16.2743 18.2671 17.2686 17.2772 17.2686 16.0562C17.2686 14.8351 16.2743 13.8452 15.0476 13.8452C13.8209 13.8452 12.8265 14.8351 12.8265 16.0562C12.8265 17.2772 13.8209 18.2671 15.0476 18.2671Z" fill="#1D1D1B"/>
<path d="M2.09518 13.6637C10.7301 7.38424 19.3651 7.38424 28 13.6637" stroke="#1D1D1B" stroke-miterlimit="10" stroke-linecap="round"/>
<path d="M22.5648 18.668L23.1357 20.2247" stroke="#1D1D1B" stroke-miterlimit="10" stroke-linecap="round"/>
<path d="M17.4414 19.8618L17.6237 21.5093" stroke="#1D1D1B" stroke-miterlimit="10" stroke-linecap="round"/>
<path d="M12.1837 19.8044L11.9678 21.4471" stroke="#1D1D1B" stroke-miterlimit="10" stroke-linecap="round"/>
<path d="M7.09389 18.501L6.48944 20.0434" stroke="#1D1D1B" stroke-miterlimit="10" stroke-linecap="round"/>
</svg>
