<svg width="57" height="45" viewBox="0 0 57 45" fill="none" xmlns="http://www.w3.org/2000/svg">
<path fill-rule="evenodd" clip-rule="evenodd" d="M5 7H4C1.79086 7 0 8.79083 0 11V41C0 43.2092 1.79086 45 4 45H46C48.2091 45 50 43.2092 50 41V40H9C6.79086 40 5 38.2092 5 36V7Z" fill="#D9D9D9"/>
<path fill-rule="evenodd" clip-rule="evenodd" d="M7 4C7 1.79083 8.79086 0 11 0H53C55.2091 0 57 1.79083 57 4V34C57 36.2092 55.2091 38 53 38H11C8.79086 38 7 36.2092 7 34V4ZM28.25 16.5385C28.6817 15.6529 29.6942 15.2136 30.6359 15.5034L34.7823 16.7792C35.245 16.9216 35.6404 17.2269 35.895 17.6385L36.6237 18.8165C37.4824 17.9975 38.9154 18.0972 39.6341 19.1158L45.3013 27.1469C46.2362 28.4718 45.2887 30.3 43.6672 30.3H32.3328C31.9502 30.3 31.6051 30.1982 31.3134 30.0253C31.0065 30.2283 30.633 30.3501 30.212 30.3501H19.788C18.0849 30.3501 17.1611 28.3574 18.2617 27.0577L23.4737 20.9026C24.1882 20.0588 25.4275 19.9697 26.2528 20.6353L28.25 16.5385ZM32 11C33.6569 11 35 9.65686 35 8C35 6.34314 33.6569 5 32 5C30.3431 5 29 6.34314 29 8C29 9.65686 30.3431 11 32 11Z" fill="#D9D9D9"/>
</svg>
