<svg width="30" height="30" viewBox="0 0 30 30" fill="none" xmlns="http://www.w3.org/2000/svg">
<rect x="6.5" y="12.2527" width="2" height="9" rx="1" stroke="black"/>
<mask id="path-2-inside-1_1564_280" fill="white">
<path fill-rule="evenodd" clip-rule="evenodd" d="M16.3575 6.14809C16.5117 5.09276 15.1276 4.56132 14.5359 5.44874L10.1874 11.9715C10.0515 12.1754 10.0021 12.3983 10.021 12.6101C10.0074 12.6528 10 12.7001 10 12.7526V19.7535C10 20.8581 10.8954 21.7526 12 21.7526H20.4035C21.3373 21.7526 22.1469 21.1065 22.3538 20.1959L23.9447 13.1959C24.2292 11.9444 23.2779 10.7526 21.9945 10.7526H15.6844L16.3575 6.14809Z"/>
</mask>
<path d="M14.5359 5.44874L13.7039 4.89404L13.7039 4.89404L14.5359 5.44874ZM16.3575 6.14809L15.368 6.00344L15.368 6.00344L16.3575 6.14809ZM10.1874 11.9715L11.0195 12.5262L11.0195 12.5262L10.1874 11.9715ZM10.021 12.6101L10.9742 12.9124L11.0348 12.7212L11.017 12.5215L10.021 12.6101ZM22.3538 20.1959L21.3787 19.9743L21.3787 19.9743L22.3538 20.1959ZM23.9447 13.1959L22.9696 12.9743L22.9696 12.9743L23.9447 13.1959ZM15.6844 10.7526L14.6949 10.608L14.5276 11.7526H15.6844V10.7526ZM15.368 6.00344L15.368 6.00344L17.347 6.29273C17.6555 4.18208 14.8871 3.1192 13.7039 4.89404L15.368 6.00344ZM11.0195 12.5262L15.368 6.00344L13.7039 4.89404L9.35538 11.4168L11.0195 12.5262ZM11.017 12.5215C11.0172 12.5236 11.0171 12.5272 11.0162 12.5309C11.0158 12.5325 11.0154 12.5332 11.0156 12.5329C11.0157 12.5326 11.0167 12.5303 11.0195 12.5262L9.35538 11.4168C9.08988 11.8151 8.98642 12.266 9.02491 12.6987L11.017 12.5215ZM11 12.7526C11 12.7956 10.9937 12.8509 10.9742 12.9124L9.06777 12.3077C9.02115 12.4547 9 12.6045 9 12.7526H11ZM11 19.7535V12.7526H9V19.7535H11ZM12 20.7526C11.4472 20.7526 11 20.3052 11 19.7535H9C9 21.4109 10.3437 22.7526 12 22.7526V20.7526ZM20.4035 20.7526H12V22.7526H20.4035V20.7526ZM21.3787 19.9743C21.2752 20.4296 20.8704 20.7526 20.4035 20.7526V22.7526C21.8042 22.7526 23.0185 21.7834 23.3289 20.4175L21.3787 19.9743ZM22.9696 12.9743L21.3787 19.9743L23.3289 20.4175L24.9199 13.4175L22.9696 12.9743ZM21.9945 11.7526C22.6362 11.7526 23.1118 12.3485 22.9696 12.9743L24.9199 13.4175C25.3465 11.5402 23.9196 9.75265 21.9945 9.75265V11.7526ZM15.6844 11.7526H21.9945V9.75265H15.6844V11.7526ZM15.368 6.00344L14.6949 10.608L16.6739 10.8973L17.347 6.29273L15.368 6.00344Z" fill="black" mask="url(#path-2-inside-1_1564_280)"/>
</svg>
