<svg width="33" height="32" viewBox="0 0 33 32" fill="none" xmlns="http://www.w3.org/2000/svg">
<path fill-rule="evenodd" clip-rule="evenodd" d="M5 0C2.23858 0 0 2.23858 0 5V27C0 29.7614 2.23858 32 5 32H17C19.7615 32 22 29.7609 22 26.9996V26.9842V26.9688V26.9534V26.938V26.9226V26.9072V26.8918V26.8764V26.861V26.8456V26.8303V26.8149V26.7995V26.7842V26.7688V26.7535V26.7382V26.7228V26.7075V26.6922V26.6769V26.6616V26.6463V26.631V26.6157V26.6004V26.5851V26.5698V26.5546V26.5393V26.524V26.5088V26.4935V26.4783V26.463V26.4478V26.4326V26.4173V26.4021V26.3869V26.3717V26.3565V26.3413V26.3261V26.3109V26.2957V26.2806V26.2654V26.2502V26.2351V26.2199V26.2047V26.1896V26.1745V26.1593V26.1442V26.1291V26.1139V26.0988V26.0837V26.0686V26.0535V26.0384V26.0233V26.0082V25.9932V25.9781V25.963V25.9479V25.9329V25.9178V25.9028V25.8877V25.8727V25.8577V25.8426V25.8276V25.8126V25.7976V25.7825V25.7675V25.7525V25.7375V25.7226V25.7076V25.6926V25.6776V25.6626V25.6477V25.6327V25.6177V25.6028V25.5878V25.5729V25.558V25.543V25.5281V25.5132V25.4983V25.4834V25.4684V25.4535V25.4386V25.4237V25.4089V25.394V25.3791V25.3642V25.3493V25.3345V25.3196V25.3048V25.2899V25.2751V25.2602V25.2454V25.2306V25.2157V25.2009V25.1861V25.1713V25.1565V25.1416V25.1269V25.1121V25.0973V25.0825V25.0677V25.0529V25.0381V25.0234V25.0086V24.9939V24.9791V24.9643V24.9496V24.9349V24.9201V24.9054V24.8907V24.8759V24.8612V24.8465V24.8318V24.8171V24.8024V24.7877V24.773V24.7583V24.7436V24.729V24.7143V24.6996V24.685V24.6703V24.6556V24.641V24.6263V24.6117V24.5971V24.5824V24.5678V24.5532V24.5386V24.5239V24.5093V24.4947V24.4801V24.4655V24.4509V24.4363V24.4217V24.4072V24.3926V24.378V24.3634V24.3489V24.3343V24.3198V24.3052V24.2907V24.2761V24.2616V24.247V24.2325V24.218V24.2035V24.1889V24.1744V24.1599V24.1454V24.1309V24.1164V24.1019V24.0874V24.073V24.0585V24.044V24.0295V24.0151V24.0006V24H20V24.0006V24.0151V24.0295V24.044V24.0585V24.073V24.0874V24.1019V24.1164V24.1309V24.1454V24.1599V24.1744V24.1889V24.2035V24.218V24.2325V24.247V24.2616V24.2761V24.2907V24.3052V24.3198V24.3343V24.3489V24.3634V24.378V24.3926V24.4072V24.4217V24.4363V24.4509V24.4655V24.4801V24.4947V24.5093V24.5239V24.5386V24.5532V24.5678V24.5824V24.5971V24.6117V24.6263V24.641V24.6556V24.6703V24.685V24.6996V24.7143V24.729V24.7436V24.7583V24.773V24.7877V24.8024V24.8171V24.8318V24.8465V24.8612V24.8759V24.8907V24.9054V24.9201V24.9349V24.9496V24.9643V24.9791V24.9939V25.0086V25.0234V25.0381V25.0529V25.0677V25.0825V25.0973V25.1121V25.1269V25.1416V25.1565V25.1713V25.1861V25.2009V25.2157V25.2306V25.2454V25.2602V25.2751V25.2899V25.3048V25.3196V25.3345V25.3493V25.3642V25.3791V25.394V25.4089V25.4237V25.4386V25.4535V25.4684V25.4834V25.4983V25.5132V25.5281V25.543V25.558V25.5729V25.5878V25.6028V25.6177V25.6327V25.6477V25.6626V25.6776V25.6926V25.7076V25.7226V25.7375V25.7525V25.7675V25.7825V25.7976V25.8126V25.8276V25.8426V25.8577V25.8727V25.8877V25.9028V25.9178V25.9329V25.9479V25.963V25.9781V25.9932V26.0082V26.0233V26.0384V26.0535V26.0686V26.0837V26.0988V26.1139V26.1291V26.1442V26.1593V26.1745V26.1896V26.2047V26.2199V26.2351V26.2502V26.2654V26.2806V26.2957V26.3109V26.3261V26.3413V26.3565V26.3717V26.3869V26.4021V26.4173V26.4326V26.4478V26.463V26.4783V26.4935V26.5088V26.524V26.5393V26.5546V26.5698V26.5851V26.6004V26.6157V26.631V26.6463V26.6616V26.6769V26.6922V26.7075V26.7228V26.7382V26.7535V26.7688V26.7842V26.7995V26.8149V26.8303V26.8456V26.861V26.8764V26.8918V26.9072V26.9226V26.938V26.9534V26.9688V26.9842V26.9996C20 28.6566 18.6567 30 17 30H5C3.34315 30 2 28.6569 2 27V5C2 3.34315 3.34315 2 5 2H17C18.6568 2 20 3.34329 20 5.00021V5.03216V5.0641V5.09601V5.12789V5.15976V5.1916V5.22341V5.25521V5.28698V5.31873V5.35045V5.38215V5.41383V5.44549V5.47712V5.50873V5.54032V5.57188V5.60343V5.63495V5.66644V5.69792V5.72937V5.76081V5.79221V5.8236V5.85497V5.88631V5.91763V5.94893V5.98021V6.01147V6.0427V6.07391V6.1051V6.13627V6.16742V6.19855V6.22966V6.26074V6.29181V6.32285V6.35387V6.38487V6.41585V6.44681V6.47775V6.50867V6.53956V6.57044V6.6013V6.63213V6.66295V6.69374V6.72452V6.75527V6.78601V6.81672V6.84742V6.87809V6.90874V6.93938V6.96999V7.00059V7.03117V7.06172V7.09226V7.12278V7.15327V7.18375V7.21421V7.24465V7.27507V7.30547V7.33586V7.36622V7.39657V7.42689V7.4572V7.48749V7.51776V7.54801V7.57824V7.60846V7.63866V7.66883V7.69899V7.72913V7.75926V7.78936V7.81945V7.84952V7.87957V7.90961V7.93962V7.96962V7.9996V8.02956V8.05951V8.08944V8.11935V8.14924V8.17912V8.20898V8.23882V8.26864V8.29845V8.32824V8.35802V8.38777V8.41751V8.44724V8.47694V8.50663V8.53631V8.56596V8.59561V8.62523V8.65484V8.68443V8.71401V8.74357V8.77311V8.80264V8.83215V8.86165V8.89113V8.92059V8.95004V8.97948V9H22V8.97948V8.95004V8.92059V8.89113V8.86165V8.83215V8.80264V8.77311V8.74357V8.71401V8.68443V8.65484V8.62523V8.59561V8.56596V8.53631V8.50663V8.47694V8.44724V8.41751V8.38777V8.35802V8.32824V8.29845V8.26864V8.23882V8.20898V8.17912V8.14924V8.11935V8.08944V8.05951V8.02956V7.9996V7.96962V7.93962V7.90961V7.87957V7.84952V7.81945V7.78936V7.75926V7.72913V7.69899V7.66883V7.63866V7.60846V7.57824V7.54801V7.51776V7.48749V7.4572V7.42689V7.39657V7.36622V7.33586V7.30547V7.27507V7.24465V7.21421V7.18375V7.15327V7.12278V7.09226V7.06172V7.03117V7.00059V6.96999V6.93938V6.90874V6.87809V6.84742V6.81672V6.78601V6.75527V6.72452V6.69374V6.66295V6.63213V6.6013V6.57044V6.53956V6.50867V6.47775V6.44681V6.41585V6.38487V6.35387V6.32285V6.29181V6.26074V6.22966V6.19855V6.16742V6.13627V6.1051V6.07391V6.0427V6.01147V5.98021V5.94893V5.91763V5.88631V5.85497V5.8236V5.79221V5.76081V5.72937V5.69792V5.66644V5.63495V5.60343V5.57188V5.54032V5.50873V5.47712V5.44549V5.41383V5.38215V5.35045V5.31873V5.28698V5.25521V5.22341V5.1916V5.15976V5.12789V5.09601V5.0641V5.03216V5.00021C22 2.23885 19.7615 0 17 0H5Z" fill="black"/>
<path d="M12 15C11.4477 15 11 15.4477 11 16C11 16.5523 11.4477 17 12 17V15ZM32.7071 16.7071C33.0976 16.3166 33.0976 15.6834 32.7071 15.2929L26.3431 8.92893C25.9526 8.53841 25.3195 8.53841 24.9289 8.92893C24.5384 9.31946 24.5384 9.95262 24.9289 10.3431L30.5858 16L24.9289 21.6569C24.5384 22.0474 24.5384 22.6805 24.9289 23.0711C25.3195 23.4616 25.9526 23.4616 26.3431 23.0711L32.7071 16.7071ZM12 17H32V15H12V17Z" fill="black"/>
<circle cx="21" cy="24" r="1" fill="black"/>
<circle cx="21" cy="9" r="1" fill="black"/>
</svg>
